<svg id="visual" viewBox="0 0 900 600" width="900" height="600" xmlns="http://www.w3.org/2000/svg" xmlns:xlink="http://www.w3.org/1999/xlink" version="1.1"><rect x="0" y="0" width="900" height="600" fill="#001220"></rect><defs><linearGradient id="grad1_0" x1="33.3%" y1="100%" x2="100%" y2="0%"><stop offset="20%" stop-color="#001220" stop-opacity="1"></stop><stop offset="80%" stop-color="#001220" stop-opacity="1"></stop></linearGradient></defs><defs><linearGradient id="grad2_0" x1="0%" y1="100%" x2="66.7%" y2="0%"><stop offset="20%" stop-color="#001220" stop-opacity="1"></stop><stop offset="80%" stop-color="#001220" stop-opacity="1"></stop></linearGradient></defs><g transform="translate(900, 600)"><path d="M-324.5 0C-315.1 -44.4 -305.7 -88.8 -277.2 -114.8C-248.7 -140.8 -201.1 -148.3 -170.4 -170.4C-139.7 -192.5 -125.9 -229.2 -100.3 -242.1C-74.7 -254.9 -37.3 -244 0 -233L0 0Z" fill="#FBAE3C"></path></g><g transform="translate(0, 0)"><path d="M265 0C289 44.9 313 89.8 299.8 124.2C286.6 158.6 236.4 182.5 194.5 194.5C152.6 206.4 119 206.6 88 212.5C57 218.4 28.5 230.2 0 242L0 0Z" fill="#FBAE3C"></path></g></svg>